# Blender v2.80 (sub 75) OBJ File: 'lamp_post.blend'
# www.blender.org
mtllib lamp_tall.mtl
o Cube
v 0.352055 1.223982 0.062061
v 0.610371 1.217092 0.062061
v 0.483861 1.235370 0.062061
v 0.350527 1.181614 0.062061
v 0.627344 1.164277 0.062061
v 0.483861 1.164277 0.066575
v 0.409073 1.230148 0.062061
v 0.409073 1.164277 0.066575
v 0.558649 1.235806 0.062061
v 0.558649 1.164277 0.066575
v 0.630853 1.223356 0.042046
v 0.482261 1.244826 0.042046
v 0.650788 1.161324 0.042046
v 0.394419 1.238692 0.042046
v 0.570103 1.245337 0.042046
v 0.327450 1.231450 0.042046
v 0.322156 1.181903 0.042046
v 0.394419 1.161324 0.042046
v 0.603654 1.127406 0.041245
v 0.487606 1.110433 0.041245
v 0.618772 1.160201 0.042373
v 0.487606 1.160201 0.054280
v 0.459421 1.113479 0.041245
v 0.419238 1.160201 0.046887
v 0.559953 1.109998 0.041245
v 0.555974 1.160201 0.054280
v 0.488759 1.100670 0.021230
v 0.640203 1.157248 0.026014
v 0.457494 1.104050 0.021230
v 0.569009 1.100188 0.021230
v 0.617485 1.119498 0.021230
v 0.405843 1.157248 0.026014
v 0.352055 1.223982 -0.062061
v 0.610371 1.217092 -0.062061
v 0.483861 1.235370 -0.062061
v 0.350527 1.181614 -0.062061
v 0.627344 1.164277 -0.062061
v 0.483861 1.164277 -0.066575
v 0.409073 1.230148 -0.062061
v 0.409073 1.164277 -0.066575
v 0.558649 1.235806 -0.062061
v 0.558649 1.164277 -0.066575
v 0.630853 1.223356 -0.042046
v 0.482261 1.244826 -0.042046
v 0.650788 1.161324 -0.042046
v 0.394419 1.238692 -0.042046
v 0.570103 1.245337 -0.042046
v 0.327450 1.231450 -0.042046
v 0.322156 1.181903 -0.042046
v 0.394419 1.161324 -0.042046
v 0.603654 1.127406 -0.041245
v 0.487606 1.110433 -0.041245
v 0.618772 1.160201 -0.042372
v 0.487606 1.160201 -0.054280
v 0.459421 1.113479 -0.041245
v 0.419238 1.160201 -0.046887
v 0.559953 1.109998 -0.041245
v 0.555974 1.160201 -0.054280
v 0.488759 1.100670 -0.021230
v 0.640203 1.157248 -0.026013
v 0.457494 1.104050 -0.021230
v 0.569009 1.100188 -0.021230
v 0.617485 1.119498 -0.021230
v 0.405843 1.157248 -0.026013
vt 0.500000 0.701274
vt 0.500000 0.701274
vt 0.500000 0.701274
vt 0.500000 0.701274
vt 0.625000 0.701274
vt 0.625000 0.750000
vt 0.500000 0.750000
vt 0.812500 0.701274
vt 0.875000 0.701274
vt 0.875000 0.750000
vt 0.812500 0.750000
vt 0.687500 0.701274
vt 0.750000 0.701274
vt 0.750000 0.750000
vt 0.687500 0.750000
vt 0.500000 0.937500
vt 0.625000 0.937500
vt 0.625000 1.000000
vt 0.500000 1.000000
vt 0.500000 0.812500
vt 0.625000 0.812500
vt 0.625000 0.875000
vt 0.500000 0.875000
vt 0.500000 0.815685
vt 0.500000 0.815685
vt 0.500000 0.937500
vt 0.625000 0.048726
vt 0.500000 0.048726
vt 0.500000 0.048726
vt 0.625000 0.048726
vt 0.500000 0.815685
vt 0.500000 0.815685
vt 0.500000 0.750000
vt 0.687500 0.701274
vt 0.750000 0.701274
vt 0.500000 0.000000
vt 0.625000 0.000000
vt 0.500000 0.812500
vt 0.812500 0.701274
vt 0.500000 0.875000
vt 0.250000 0.701274
vt 0.250000 0.701274
vt 0.312500 0.701274
vt 0.312500 0.701274
vt 0.875000 0.701274
vt 0.625000 0.701274
vt 0.375000 0.701274
vt 0.375000 0.750000
vt 0.312500 0.750000
vt 0.187500 0.701274
vt 0.250000 0.750000
vt 0.187500 0.750000
vt 0.375000 0.812500
vt 0.375000 0.875000
vt 0.375000 0.937500
vt 0.375000 0.701274
vt 0.338455 0.852229
vt 0.338455 0.852229
vt 0.187500 0.701274
vt 0.500000 0.750000
vt 0.625000 0.750000
vt 0.812500 0.750000
vt 0.875000 0.750000
vt 0.687500 0.750000
vt 0.750000 0.750000
vt 0.500000 0.937500
vt 0.500000 1.000000
vt 0.625000 1.000000
vt 0.625000 0.937500
vt 0.500000 0.812500
vt 0.500000 0.875000
vt 0.625000 0.875000
vt 0.625000 0.812500
vt 0.500000 0.937500
vt 0.500000 0.750000
vt 0.500000 0.000000
vt 0.625000 0.000000
vt 0.500000 0.812500
vt 0.500000 0.875000
vt 0.312500 0.750000
vt 0.375000 0.750000
vt 0.187500 0.750000
vt 0.250000 0.750000
vt 0.375000 0.812500
vt 0.375000 0.875000
vt 0.375000 0.937500
vn 0.3594 -0.9332 0.0000
vn 0.6501 0.2089 0.7306
vn -0.0960 0.8881 0.4494
vn -0.0053 0.9040 0.4275
vn -0.0349 0.0421 0.9985
vn -0.0629 0.9004 0.4304
vn -0.0002 0.0632 0.9980
vn -0.0023 0.0658 0.9978
vn 0.2862 0.7911 0.5405
vn -0.0788 -0.9812 0.1763
vn -0.9943 0.1062 0.0000
vn -0.3361 -0.9418 0.0000
vn 0.0364 -0.9783 0.2038
vn -0.0058 1.0000 0.0000
vn -0.2740 -0.9073 0.3189
vn -0.5981 0.0444 0.8002
vn 0.0296 -0.9710 0.2371
vn -0.0697 0.9976 0.0000
vn -0.2739 -0.9618 0.0000
vn -0.0125 -0.9702 0.2419
vn -0.0060 -1.0000 0.0000
vn -0.1075 0.9942 0.0000
vn 0.9520 0.3060 0.0000
vn 0.0000 -0.9492 0.3147
vn 0.3141 -0.7886 0.5287
vn -0.0969 -0.8967 0.4318
vn -0.0008 -0.2524 0.9676
vn 0.6037 -0.3824 0.6995
vn -0.0814 -0.2220 0.9716
vn 0.1390 -0.1847 0.9729
vn -0.0054 -0.8989 0.4382
vn 0.8568 -0.5156 0.0000
vn -0.6410 -0.6342 0.4323
vn -0.7175 -0.6966 0.0000
vn -0.1075 -0.9942 0.0000
vn 0.3701 -0.9290 0.0000
vn 0.0440 0.0422 0.9981
vn 0.6501 0.2089 -0.7306
vn -0.0960 0.8881 -0.4494
vn -0.0053 0.9040 -0.4275
vn -0.0349 0.0421 -0.9985
vn -0.0629 0.9004 -0.4304
vn -0.0002 0.0632 -0.9980
vn -0.0023 0.0658 -0.9978
vn 0.2862 0.7911 -0.5405
vn -0.0788 -0.9812 -0.1763
vn 0.0364 -0.9783 -0.2038
vn -0.2740 -0.9073 -0.3189
vn -0.5981 0.0444 -0.8002
vn 0.0296 -0.9710 -0.2371
vn -0.0125 -0.9702 -0.2419
vn 0.0000 -0.9492 -0.3147
vn 0.3141 -0.7886 -0.5287
vn -0.0969 -0.8967 -0.4318
vn -0.0008 -0.2524 -0.9676
vn 0.6037 -0.3824 -0.6995
vn -0.0814 -0.2220 -0.9716
vn 0.1390 -0.1847 -0.9729
vn -0.0054 -0.8989 -0.4382
vn -0.6410 -0.6342 -0.4323
vn 0.0440 0.0422 -0.9981
vn 0.3402 0.9403 0.0000
usemtl None
s off
f 28/1/1 60/2/1 45/3/1 13/4/1
f 13/4/2 11/5/2 2/6/2 5/7/2
f 14/8/3 16/9/3 1/10/3 7/11/3
f 15/12/4 12/13/4 3/14/4 9/15/4
f 8/16/5 7/17/5 1/18/5 4/19/5
f 12/13/6 14/8/6 7/11/6 3/14/6
f 10/20/7 9/21/7 3/22/7 6/23/7
f 6/23/8 3/22/8 7/17/8 8/16/8
f 11/5/9 15/12/9 9/15/9 2/6/9
f 8/16/10 18/24/10 32/25/10 24/26/10
f 48/27/11 49/28/11 17/29/11 16/30/11
f 50/31/12 64/32/12 32/25/12 18/24/12
f 13/4/13 5/7/13 21/33/13 28/1/13
f 15/12/14 47/34/14 44/35/14 12/13/14
f 8/16/15 4/36/15 17/29/15 18/24/15
f 4/36/16 1/37/16 16/30/16 17/29/16
f 5/7/17 10/20/17 26/38/17 21/33/17
f 12/13/18 44/35/18 46/39/18 14/8/18
f 50/31/19 18/24/19 17/29/19 49/28/19
f 6/23/20 8/16/20 24/26/20 22/40/20
f 27/41/21 59/42/21 62/43/21 30/44/21
f 14/8/22 46/39/22 48/45/22 16/9/22
f 13/4/23 45/3/23 43/46/23 11/5/23
f 10/20/24 6/23/24 22/40/24 26/38/24
f 30/44/25 31/47/25 19/48/25 25/49/25
f 29/50/26 27/41/26 20/51/26 23/52/26
f 25/53/27 26/38/27 22/40/27 20/54/27
f 31/47/28 28/1/28 21/33/28 19/48/28
f 20/54/29 22/40/29 24/26/29 23/55/29
f 19/48/30 21/33/30 26/38/30 25/53/30
f 27/41/31 30/44/31 25/49/31 20/51/31
f 31/47/32 63/56/32 60/2/32 28/1/32
f 24/26/33 32/25/33 29/57/33 23/55/33
f 64/32/34 61/58/34 29/57/34 32/25/34
f 29/50/35 61/59/35 59/42/35 27/41/35
f 30/44/36 62/43/36 63/56/36 31/47/36
f 5/7/37 2/6/37 9/21/37 10/20/37
f 45/3/38 37/60/38 34/61/38 43/46/38
f 46/39/39 39/62/39 33/63/39 48/45/39
f 47/34/40 41/64/40 35/65/40 44/35/40
f 40/66/41 36/67/41 33/68/41 39/69/41
f 44/35/42 35/65/42 39/62/42 46/39/42
f 42/70/43 38/71/43 35/72/43 41/73/43
f 38/71/44 40/66/44 39/69/44 35/72/44
f 43/46/45 34/61/45 41/64/45 47/34/45
f 40/66/46 56/74/46 64/32/46 50/31/46
f 45/3/47 60/2/47 53/75/47 37/60/47
f 40/66/48 50/31/48 49/28/48 36/76/48
f 36/76/49 49/28/49 48/27/49 33/77/49
f 37/60/50 53/75/50 58/78/50 42/70/50
f 38/71/51 54/79/51 56/74/51 40/66/51
f 42/70/52 58/78/52 54/79/52 38/71/52
f 62/43/53 57/80/53 51/81/53 63/56/53
f 61/59/54 55/82/54 52/83/54 59/42/54
f 57/84/55 52/85/55 54/79/55 58/78/55
f 63/56/56 51/81/56 53/75/56 60/2/56
f 52/85/57 55/86/57 56/74/57 54/79/57
f 51/81/58 57/84/58 58/78/58 53/75/58
f 59/42/59 52/83/59 57/80/59 62/43/59
f 56/74/60 55/86/60 61/58/60 64/32/60
f 37/60/61 42/70/61 41/73/61 34/61/61
f 11/5/62 43/46/62 47/34/62 15/12/62
o BezierCurve
v -0.123962 0.609287 0.000001
v -0.130059 0.648830 0.000001
v -0.131945 0.691437 0.000001
v -0.129987 0.736179 0.000000
v -0.124554 0.782125 0.000000
v -0.116015 0.828344 0.000000
v -0.104737 0.873907 0.000000
v -0.091090 0.917882 0.000000
v -0.075442 0.959339 0.000000
v -0.058161 0.997349 0.000000
v -0.039616 1.030979 0.000000
v -0.020174 1.059301 0.000000
v -0.000205 1.081382 0.000000
v 0.021012 1.100390 -0.000005
v 0.042344 1.117993 -0.000019
v 0.064035 1.134164 -0.000041
v 0.086331 1.148876 -0.000068
v 0.109477 1.162104 -0.000098
v 0.133720 1.173820 -0.000131
v 0.159304 1.183999 -0.000163
v 0.186476 1.192613 -0.000194
v 0.215480 1.199637 -0.000221
v 0.246563 1.205045 -0.000242
v 0.279969 1.208809 -0.000257
v 0.315945 1.210903 -0.000262
l 65 66
l 66 67
l 67 68
l 68 69
l 69 70
l 70 71
l 71 72
l 72 73
l 73 74
l 74 75
l 75 76
l 76 77
l 77 78
l 78 79
l 79 80
l 80 81
l 81 82
l 82 83
l 83 84
l 84 85
l 85 86
l 86 87
l 87 88
l 88 89
o Cylinder.003
v -0.108608 0.600674 0.000001
v 0.337654 1.198257 -0.000256
v -0.115390 0.599176 0.012030
v 0.337422 1.205206 0.011769
v -0.128954 0.596181 0.012030
v 0.336957 1.219089 0.011761
v -0.135736 0.594683 0.000001
v 0.336724 1.226023 -0.000273
v -0.128954 0.596181 -0.012029
v 0.336957 1.219074 -0.012299
v -0.115390 0.599176 -0.012029
v 0.337422 1.205191 -0.012290
v -0.104366 0.814945 0.000000
v -0.030899 1.017420 0.000000
v 0.127587 1.155165 -0.000111
v 0.124577 1.161428 0.011917
v -0.036857 1.020989 0.012030
v -0.111175 0.816313 0.012030
v 0.118535 1.173936 0.011913
v -0.048772 1.028129 0.012030
v -0.124794 0.819049 0.012030
v 0.115503 1.180181 -0.000118
v -0.054730 1.031699 0.000000
v -0.131603 0.820417 0.000000
v 0.118512 1.173918 -0.012146
v -0.048772 1.028129 -0.012029
v -0.124794 0.819049 -0.012029
v 0.124554 1.161410 -0.012142
v -0.036857 1.020989 -0.012029
v -0.111175 0.816313 -0.012029
vt 1.000000 0.875000
vt 1.000000 1.000000
vt 0.833333 1.000000
vt 0.833333 0.875000
vt 0.666667 1.000000
vt 0.666667 0.875000
vt 0.500000 1.000000
vt 0.500000 0.875000
vt 0.333333 1.000000
vt 0.333333 0.875000
vt 0.457846 0.370000
vt 0.250000 0.490000
vt 0.042154 0.370000
vt 0.042154 0.130000
vt 0.250000 0.010000
vt 0.457846 0.130000
vt 0.166667 1.000000
vt 0.166667 0.875000
vt -0.000000 1.000000
vt -0.000000 0.875000
vt 0.750000 0.490000
vt 0.957846 0.370000
vt 0.957846 0.130000
vt 0.750000 0.010000
vt 0.542154 0.130000
vt 0.542154 0.370000
vt 0.166667 0.500000
vt 0.166667 0.625000
vt -0.000000 0.625000
vt -0.000000 0.500000
vt 0.166667 0.750000
vt -0.000000 0.750000
vt 0.333333 0.500000
vt 0.333333 0.625000
vt 0.333333 0.750000
vt 0.500000 0.500000
vt 0.500000 0.625000
vt 0.500000 0.750000
vt 0.666667 0.500000
vt 0.666667 0.625000
vt 0.666667 0.750000
vt 0.833333 0.500000
vt 0.833333 0.625000
vt 0.833333 0.750000
vt 1.000000 0.500000
vt 1.000000 0.625000
vt 1.000000 0.750000
vn 0.1755 -0.8527 0.4920
vn 0.0006 0.0006 1.0000
vn -0.1762 0.8531 0.4911
vn -0.1768 0.8524 -0.4920
vn 0.9994 0.0335 -0.0000
vn -0.0006 -0.0006 -1.0000
vn 0.1749 -0.8534 -0.4911
vn 0.2156 -0.9765 0.0000
vn 0.8706 -0.0171 -0.4917
vn 0.8171 -0.2966 -0.4944
vn 0.5740 -0.6605 -0.4839
vn 0.0000 -0.0000 -1.0000
vn -0.0003 -0.0005 -1.0000
vn -0.8706 0.0161 -0.4917
vn -0.8169 0.2971 -0.4944
vn -0.5753 0.6594 -0.4839
vn -0.8706 0.0161 0.4917
vn -0.8169 0.2971 0.4944
vn -0.5749 0.6598 0.4839
vn -0.0000 0.0000 1.0000
vn 0.0003 0.0005 1.0000
vn 0.8706 -0.0171 0.4917
vn 0.8171 -0.2966 0.4944
vn 0.5744 -0.6602 0.4839
usemtl None
s off
f 104/87/63 91/88/63 93/89/63 105/90/63
f 105/90/64 93/89/64 95/91/64 108/92/64
f 108/92/65 95/91/65 97/93/65 111/94/65
f 111/94/66 97/93/66 99/95/66 114/96/66
f 93/97/67 91/98/67 101/99/67 99/100/67 97/101/67 95/102/67
f 114/96/68 99/95/68 101/103/68 117/104/68
f 117/104/69 101/103/69 91/105/69 104/106/69
f 90/107/70 92/108/70 94/109/70 96/110/70 98/111/70 100/112/70
f 100/113/71 119/114/71 102/115/71 90/116/71
f 119/114/72 118/117/72 103/118/72 102/115/72
f 118/117/73 117/104/73 104/106/73 103/118/73
f 98/119/74 116/120/74 119/114/74 100/113/74
f 116/120/74 115/121/74 118/117/74 119/114/74
f 115/121/75 114/96/75 117/104/75 118/117/75
f 96/122/76 113/123/76 116/120/76 98/119/76
f 113/123/77 112/124/77 115/121/77 116/120/77
f 112/124/78 111/94/78 114/96/78 115/121/78
f 94/125/79 110/126/79 113/123/79 96/122/79
f 110/126/80 109/127/80 112/124/80 113/123/80
f 109/127/81 108/92/81 111/94/81 112/124/81
f 92/128/82 107/129/82 110/126/82 94/125/82
f 107/129/82 106/130/82 109/127/82 110/126/82
f 106/130/83 105/90/83 108/92/83 109/127/83
f 90/131/84 102/132/84 107/129/84 92/128/84
f 102/132/85 103/133/85 106/130/85 107/129/85
f 103/133/86 104/87/86 105/90/86 106/130/86
o Cylinder.002_Cylinder.004
v -0.163037 -1.032237 -0.057894
v -0.163037 0.986660 -0.025865
v -0.122100 -1.032237 -0.040937
v -0.144747 0.986660 -0.018290
v -0.105143 -1.032237 0.000000
v -0.137171 0.986660 0.000000
v -0.122100 -1.032237 0.040937
v -0.144747 0.986660 0.018290
v -0.163037 -1.032237 0.057894
v -0.163037 0.986660 0.025865
v -0.203974 -1.032237 0.040937
v -0.181326 0.986660 0.018290
v -0.220931 -1.032237 -0.000000
v -0.188902 0.986660 -0.000000
v -0.203974 -1.032237 -0.040937
v -0.181326 0.986660 -0.018290
v -0.163037 -0.839125 -0.025865
v -0.144747 -0.839125 -0.018290
v -0.137171 -0.839125 0.000000
v -0.144747 -0.839125 0.018290
v -0.163037 -0.839125 0.025865
v -0.181326 -0.839125 0.018290
v -0.188902 -0.839125 -0.000000
v -0.181326 -0.839125 -0.018290
v -0.163037 -0.842192 -0.037510
v -0.136513 -0.842192 -0.026524
v -0.125527 -0.842192 0.000000
v -0.136513 -0.842192 0.026524
v -0.163037 -0.842192 0.037510
v -0.189560 -0.842192 0.026524
v -0.200547 -0.842192 -0.000000
v -0.189560 -0.842192 -0.026524
v -0.163037 0.629017 -0.025865
v -0.144747 0.629017 -0.018290
v -0.137171 0.629017 0.000000
v -0.144747 0.629017 0.018290
v -0.163037 0.629017 0.025865
v -0.181326 0.629017 0.018290
v -0.188902 0.629017 -0.000000
v -0.181326 0.629017 -0.018290
v -0.163037 0.663656 -0.025865
v -0.144747 0.663656 -0.018290
v -0.137171 0.663656 0.000000
v -0.144747 0.663656 0.018290
v -0.163037 0.663656 0.025865
v -0.181326 0.663656 0.018290
v -0.188902 0.663656 -0.000000
v -0.181326 0.663656 -0.018290
v -0.142285 0.662950 -0.020752
v -0.142285 0.629723 -0.020752
v -0.133690 0.662950 0.000000
v -0.133690 0.629723 0.000000
v -0.142285 0.662950 0.020752
v -0.142285 0.629723 0.020752
v -0.163037 0.662950 0.029347
v -0.163037 0.629723 0.029347
v -0.183789 0.662950 0.020752
v -0.183789 0.629723 0.020752
v -0.192384 0.662950 -0.000000
v -0.192384 0.629723 -0.000000
v -0.183789 0.662950 -0.020752
v -0.183789 0.629723 -0.020752
v -0.163037 0.629723 -0.029347
v -0.163037 0.662950 -0.029347
vt 1.000000 0.919870
vt 1.000000 1.000000
vt 0.875000 1.000000
vt 0.875000 0.919870
vt 0.750000 1.000000
vt 0.750000 0.919871
vt 0.625000 1.000000
vt 0.625000 0.919870
vt 0.500000 1.000000
vt 0.500000 0.919870
vt 0.375000 1.000000
vt 0.375000 0.919870
vt 0.250000 1.000000
vt 0.250000 0.919871
vt 0.419706 0.419706
vt 0.250000 0.490000
vt 0.080294 0.419706
vt 0.010000 0.250000
vt 0.080294 0.080294
vt 0.250000 0.010000
vt 0.419706 0.080294
vt 0.490000 0.250000
vt 0.125000 1.000000
vt 0.125000 0.919870
vt 0.000000 1.000000
vt 0.000000 0.919870
vt 0.750000 0.490000
vt 0.919706 0.419706
vt 0.990000 0.250000
vt 0.919706 0.080294
vt 0.750000 0.010000
vt 0.580294 0.080294
vt 0.510000 0.250000
vt 0.580294 0.419706
vt 0.250000 0.547067
vt 0.125000 0.547067
vt 0.375000 0.547067
vt 0.500000 0.547067
vt 0.625000 0.547067
vt 0.750000 0.547067
vt 0.875000 0.547067
vt 1.000000 0.547067
vt 0.000000 0.547067
vt 0.875000 0.547067
vt 1.000000 0.547067
vt 0.625000 0.547067
vt 0.750000 0.547067
vt 0.375000 0.547067
vt 0.500000 0.547067
vt 0.125000 0.547067
vt 0.250000 0.547067
vt 0.000000 0.547067
vt 0.125000 0.911277
vt 0.000000 0.911277
vt 0.250000 0.911277
vt 0.375000 0.911277
vt 0.500000 0.911277
vt 0.625000 0.911277
vt 0.750000 0.911277
vt 0.875000 0.911277
vt 1.000000 0.911277
vt 0.750000 0.919871
vt 0.875000 0.919870
vt 1.000000 0.911277
vt 0.875000 0.911277
vt 0.625000 0.919870
vt 0.750000 0.911277
vt 0.500000 0.919870
vt 0.625000 0.911277
vt 0.375000 0.919870
vt 0.500000 0.911277
vt 0.125000 0.911277
vt 0.125000 0.919870
vt 0.000000 0.919870
vt 0.000000 0.911277
vt 0.250000 0.911277
vt 0.250000 0.919871
vt 0.375000 0.911277
vt 1.000000 0.919870
vn 0.3827 0.0000 -0.9239
vn 0.9239 0.0000 -0.3827
vn 0.9239 0.0000 0.3827
vn 0.3827 0.0000 0.9239
vn -0.3827 0.0000 0.9239
vn -0.9239 0.0000 0.3827
vn 0.0000 1.0000 0.0000
vn -0.9239 0.0000 -0.3827
vn -0.3827 0.0000 -0.9239
vn 0.0000 -1.0000 0.0000
vn -0.9194 0.0986 -0.3808
vn -0.9194 0.0986 0.3808
vn -0.3808 0.0986 0.9194
vn 0.3808 0.0986 0.9194
vn 0.9194 0.0986 0.3808
vn 0.9194 0.0986 -0.3808
vn 0.3808 0.0986 -0.9194
vn -0.3808 0.0986 -0.9194
vn -0.1049 -0.9617 0.2533
vn -0.2533 -0.9617 -0.1049
vn 0.1049 -0.9617 -0.2533
vn 0.2533 -0.9617 0.1049
vn -0.2533 -0.9617 0.1049
vn -0.1049 -0.9617 -0.2533
vn 0.2533 -0.9617 -0.1049
vn 0.1049 -0.9617 0.2533
vn 0.1981 0.9767 -0.0821
vn 0.0821 -0.9767 -0.1981
vn 0.1981 0.9767 0.0821
vn 0.1981 -0.9767 -0.0821
vn 0.0821 0.9767 0.1981
vn 0.1981 -0.9767 0.0821
vn -0.0821 0.9767 0.1981
vn 0.0821 -0.9767 0.1981
vn -0.0821 -0.9767 -0.1981
vn 0.0821 0.9767 -0.1981
vn -0.1981 -0.9767 -0.0821
vn -0.0821 0.9767 -0.1981
vn -0.1981 -0.9767 0.0821
vn -0.1981 0.9767 -0.0821
vn -0.0821 -0.9767 0.1981
vn -0.1981 0.9767 0.0821
usemtl None
s off
f 160/134/87 121/135/87 123/136/87 161/137/87
f 161/137/88 123/136/88 125/138/88 162/139/88
f 162/139/89 125/138/89 127/140/89 163/141/89
f 163/141/90 127/140/90 129/142/90 164/143/90
f 164/143/91 129/142/91 131/144/91 165/145/91
f 165/145/92 131/144/92 133/146/92 166/147/92
f 123/148/93 121/149/93 135/150/93 133/151/93 131/152/93 129/153/93 127/154/93 125/155/93
f 166/147/94 133/146/94 135/156/94 167/157/94
f 167/157/95 135/156/95 121/158/95 160/159/95
f 120/160/96 122/161/96 124/162/96 126/163/96 128/164/96 130/165/96 132/166/96 134/167/96
f 134/167/97 132/166/97 150/168/97 151/169/97
f 132/166/98 130/165/98 149/170/98 150/168/98
f 130/165/99 128/164/99 148/171/99 149/170/99
f 128/164/100 126/163/100 147/172/100 148/171/100
f 126/163/101 124/162/101 146/173/101 147/172/101
f 124/162/102 122/161/102 145/174/102 146/173/102
f 122/161/103 120/160/103 144/175/103 145/174/103
f 144/176/104 120/160/104 134/167/104 151/169/104
f 137/177/105 136/178/105 144/175/105 145/174/105
f 139/179/106 138/180/106 146/173/106 147/172/106
f 141/181/107 140/182/107 148/171/107 149/170/107
f 143/183/108 142/184/108 150/168/108 151/169/108
f 138/180/109 137/177/109 145/174/109 146/173/109
f 140/182/110 139/179/110 147/172/110 148/171/110
f 142/184/111 141/181/111 149/170/111 150/168/111
f 136/185/112 143/183/112 151/169/112 144/176/112
f 143/183/95 159/186/95 152/187/95 136/185/95
f 142/184/94 158/188/94 159/186/94 143/183/94
f 141/181/92 157/189/92 158/188/92 142/184/92
f 140/182/91 156/190/91 157/189/91 141/181/91
f 139/179/90 155/191/90 156/190/90 140/182/90
f 138/180/89 154/192/89 155/191/89 139/179/89
f 137/177/88 153/193/88 154/192/88 138/180/88
f 136/178/87 152/194/87 153/193/87 137/177/87
f 161/137/113 162/139/113 170/195/113 168/196/113
f 153/193/114 152/194/114 182/197/114 169/198/114
f 162/139/115 163/141/115 172/199/115 170/195/115
f 154/192/116 153/193/116 169/198/116 171/200/116
f 163/141/117 164/143/117 174/201/117 172/199/117
f 155/191/118 154/192/118 171/200/118 173/202/118
f 164/143/119 165/145/119 176/203/119 174/201/119
f 156/190/120 155/191/120 173/202/120 175/204/120
f 181/205/95 180/206/95 183/207/95 182/208/95
f 179/209/94 178/210/94 180/206/94 181/205/94
f 177/211/92 176/203/92 178/210/92 179/209/92
f 175/204/91 174/201/91 176/203/91 177/211/91
f 173/202/90 172/199/90 174/201/90 175/204/90
f 171/200/89 170/195/89 172/199/89 173/202/89
f 169/198/88 168/196/88 170/195/88 171/200/88
f 182/197/87 183/212/87 168/196/87 169/198/87
f 152/187/121 159/186/121 181/205/121 182/208/121
f 160/134/122 161/137/122 168/196/122 183/212/122
f 159/186/123 158/188/123 179/209/123 181/205/123
f 167/157/124 160/159/124 183/207/124 180/206/124
f 158/188/125 157/189/125 177/211/125 179/209/125
f 166/147/126 167/157/126 180/206/126 178/210/126
f 157/189/127 156/190/127 175/204/127 177/211/127
f 165/145/128 166/147/128 178/210/128 176/203/128
